<!DOCTYPE svg PUBLIC "-//W3C//DTD SVG 1.1//EN" "http://www.w3.org/Graphics/SVG/1.1/DTD/svg11.dtd">
<!-- Uploaded to: SVG Repo, www.svgrepo.com, Transformed by: SVG Repo Mixer Tools -->
<svg width="800px" height="800px" viewBox="0 0 24 24" id="Layer_1" data-name="Layer 1" xmlns="http://www.w3.org/2000/svg" fill="#eeeeee" stroke="#eeeeee">
<g id="SVGRepo_bgCarrier" stroke-width="0"/>
<g id="SVGRepo_tracerCarrier" stroke-linecap="round" stroke-linejoin="round"/>
<g id="SVGRepo_iconCarrier">
<defs>
<style>.cls-1{fill:none;stroke:#eeeeee;stroke-miterlimit:10;stroke-width:1.91px;}</style>
</defs>
<polygon class="cls-1" points="16.8 18.68 9.16 18.68 1.52 18.68 1.52 1.5 16.8 1.5 16.8 18.68"/>
<path class="cls-1" d="M9.16,5.32h0A3.82,3.82,0,0,1,13,9.14V11a0,0,0,0,1,0,0H5.34a0,0,0,0,1,0,0V9.14A3.82,3.82,0,0,1,9.16,5.32Z"/>
<line class="cls-1" x1="9.16" y1="8.18" x2="9.16" y2="11.05"/>
<line class="cls-1" x1="5.34" y1="14.86" x2="7.25" y2="14.86"/>
<line class="cls-1" x1="11.07" y1="14.86" x2="12.98" y2="14.86"/>
<path class="cls-1" d="M9.16,18.68v1A2.86,2.86,0,0,0,12,22.5H18.7a2.86,2.86,0,0,0,2.87-2.86V2.45"/>
<line class="cls-1" x1="19.66" y1="10.09" x2="23.48" y2="10.09"/>
<line class="cls-1" x1="19.66" y1="12" x2="23.48" y2="12"/>
</g>
</svg>