<!DOCTYPE svg PUBLIC "-//W3C//DTD SVG 1.1//EN" "http://www.w3.org/Graphics/SVG/1.1/DTD/svg11.dtd">
<!-- Uploaded to: SVG Repo, www.svgrepo.com, Transformed by: SVG Repo Mixer Tools -->
<svg fill="#eeeeee" height="800px" width="800px" version="1.1" id="Capa_1" xmlns="http://www.w3.org/2000/svg" xmlns:xlink="http://www.w3.org/1999/xlink" viewBox="0 0 60 60" xml:space="preserve" stroke="#eeeeee">
<g id="SVGRepo_bgCarrier" stroke-width="0"/>
<g id="SVGRepo_tracerCarrier" stroke-linecap="round" stroke-linejoin="round"/>
<g id="SVGRepo_iconCarrier"> <g> <g> <path d="M49,29H30v-2c0-0.6-0.4-1-1-1H11c-0.6,0-1,0.4-1,1v32c0,0.6,0.4,1,1,1h38c0.6,0,1-0.4,1-1V34v-4C50,29.4,49.6,29,49,29z M48,31v2H30v-2H48z M48,58H12V28h16v2v3h-9v2h10h19V58z"/> <path d="M23,16h14c0.6,0,1-0.4,1-1V5c0-0.6-0.4-1-1-1h-7V1c0-0.6-0.4-1-1-1h-6c-0.6,0-1,0.4-1,1v14C22,15.6,22.4,16,23,16z M24,2 h4v3c0,0.6,0.4,1,1,1h7v8H24V2z"/> <path d="M59,4h-7V1c0-0.6-0.4-1-1-1h-6c-0.6,0-1,0.4-1,1v14c0,0.6,0.4,1,1,1h14c0.6,0,1-0.4,1-1V5C60,4.4,59.6,4,59,4z M58,14H46 V2h4v3c0,0.6,0.4,1,1,1h7V14z"/> <path d="M16,15V5c0-0.6-0.4-1-1-1H8V1c0-0.6-0.4-1-1-1H1C0.4,0,0,0.4,0,1v14c0,0.6,0.4,1,1,1h14C15.6,16,16,15.6,16,15z M14,14H2 V2h4v3c0,0.6,0.4,1,1,1h7V14z"/> <path d="M51,20H31v-3h-2v3H9v-3H7v4c0,0.6,0.4,1,1,1h21v2h2v-2h21c0.6,0,1-0.4,1-1v-4h-2V20z"/> <path d="M24.3,41.3l-3,3l1.4,1.4l1.3-1.3V53h2v-8.6l1.3,1.3l1.4-1.4l-3-3C25.3,40.9,24.7,40.9,24.3,41.3z"/> <path d="M35,53c0.3,0,0.5-0.1,0.7-0.3l3-3l-1.4-1.4L36,49.6V41h-2v8.6l-1.3-1.3l-1.4,1.4l3,3C34.5,52.9,34.7,53,35,53z"/> </g> </g> </g>
</svg>