<?xml version="1.0" encoding="UTF-8" standalone="no"?>
<svg
   width="646"
   height="170.3"
   version="1.0"
   id="svg1"
   sodipodi:docname="nist.svg"
   inkscape:version="1.4.2 (f4327f4, 2025-05-13)"
   xmlns:inkscape="http://www.inkscape.org/namespaces/inkscape"
   xmlns:sodipodi="http://sodipodi.sourceforge.net/DTD/sodipodi-0.dtd"
   xmlns="http://www.w3.org/2000/svg"
   xmlns:svg="http://www.w3.org/2000/svg">
  <defs
     id="defs1" />
  <sodipodi:namedview
     id="namedview1"
     pagecolor="#ffffff"
     bordercolor="#000000"
     borderopacity="0.25"
     inkscape:showpageshadow="2"
     inkscape:pageopacity="0.0"
     inkscape:pagecheckerboard="0"
     inkscape:deskcolor="#d1d1d1"
     inkscape:zoom="2.749226"
     inkscape:cx="37.46509"
     inkscape:cy="85.296734"
     inkscape:window-width="1920"
     inkscape:window-height="1009"
     inkscape:window-x="1912"
     inkscape:window-y="-8"
     inkscape:window-maximized="1"
     inkscape:current-layer="svg1" />
  <path
     d="M45 0C20 0 0 20 0 45v125h40V45c0-4 5-6 8.5-3.5l104.9 115.1c29 29 77 8 77-31V-.4h-40v126c0 4-5 6-8.3 3.5L77.6 14.1c-10-10-18-14-32.5-14M250.2 0v125a45 45 0 0 0 45 45H463a52.5 52.5 0 0 0 0-105H357.8a12.5 12.5 0 0 1 0-25h177.5v130h40V40h70V0H357.8a52.5 52.5 0 0 0 0 105h105a12.5 12.5 0 0 1 0 25H295.3a5 5 0 0 1-5-5V0z"
     id="path1"
     style="fill:#ececec;fill-opacity:1" />
</svg>
